<svg xmlns="http://www.w3.org/2000/svg" viewBox="0 0 400 400">
  <!-- 背景 -->
  <rect width="400" height="400" fill="transparent"/>
  
  <!-- 綠色毛髮/鬃毛 (外圈) - 更蓬鬆可愛的效果 -->
  <rect x="140" y="20" width="20" height="20" fill="#0f9d5e"/>
  <rect x="160" y="20" width="20" height="20" fill="#0f9d5e"/>
  <rect x="180" y="20" width="20" height="20" fill="#0f9d5e"/>
  <rect x="200" y="20" width="20" height="20" fill="#0f9d5e"/>
  <rect x="220" y="20" width="20" height="20" fill="#0f9d5e"/>
  <rect x="240" y="20" width="20" height="20" fill="#0f9d5e"/>
  
  <rect x="120" y="40" width="20" height="20" fill="#0f9d5e"/>
  <rect x="140" y="40" width="20" height="20" fill="#16c875"/>
  <rect x="160" y="40" width="20" height="20" fill="#16c875"/>
  <rect x="180" y="40" width="20" height="20" fill="#16c875"/>
  <rect x="200" y="40" width="20" height="20" fill="#16c875"/>
  <rect x="220" y="40" width="20" height="20" fill="#16c875"/>
  <rect x="240" y="40" width="20" height="20" fill="#16c875"/>
  <rect x="260" y="40" width="20" height="20" fill="#0f9d5e"/>
  
  <rect x="100" y="60" width="20" height="20" fill="#0f9d5e"/>
  <rect x="120" y="60" width="20" height="20" fill="#16c875"/>
  <rect x="260" y="60" width="20" height="20" fill="#16c875"/>
  <rect x="280" y="60" width="20" height="20" fill="#0f9d5e"/>
  
  <rect x="80" y="80" width="20" height="20" fill="#0f9d5e"/>
  <rect x="100" y="80" width="20" height="20" fill="#16c875"/>
  <rect x="280" y="80" width="20" height="20" fill="#16c875"/>
  <rect x="300" y="80" width="20" height="20" fill="#0f9d5e"/>
  
  <rect x="80" y="100" width="20" height="20" fill="#16c875"/>
  <rect x="300" y="100" width="20" height="20" fill="#16c875"/>
  
  <rect x="60" y="120" width="20" height="20" fill="#0f9d5e"/>
  <rect x="80" y="120" width="20" height="20" fill="#16c875"/>
  <rect x="300" y="120" width="20" height="20" fill="#16c875"/>
  <rect x="320" y="120" width="20" height="20" fill="#0f9d5e"/>
  
  <rect x="60" y="140" width="20" height="20" fill="#16c875"/>
  <rect x="320" y="140" width="20" height="20" fill="#16c875"/>
  
  <rect x="60" y="160" width="20" height="20" fill="#16c875"/>
  <rect x="320" y="160" width="20" height="20" fill="#16c875"/>
  
  <rect x="80" y="180" width="20" height="20" fill="#16c875"/>
  <rect x="300" y="180" width="20" height="20" fill="#16c875"/>
  
  <!-- 黃色角 - 更圓潤可愛 -->
  <rect x="100" y="40" width="20" height="20" fill="#ffeea8"/>
  <rect x="80" y="60" width="20" height="20" fill="#ffeea8"/>
  <rect x="60" y="80" width="20" height="20" fill="#f8df65"/>
  <rect x="60" y="100" width="20" height="20" fill="#f8df65"/>
  
  <rect x="280" y="40" width="20" height="20" fill="#ffeea8"/>
  <rect x="300" y="60" width="20" height="20" fill="#ffeea8"/>
  <rect x="320" y="80" width="20" height="20" fill="#f8df65"/>
  <rect x="320" y="100" width="20" height="20" fill="#f8df65"/>
  
  <!-- 粉色頭部/臉部 - 更圓更軟萌 -->
  <rect x="120" y="80" width="20" height="20" fill="#ffa5b9"/>
  <rect x="140" y="80" width="20" height="20" fill="#ffa5b9"/>
  <rect x="160" y="80" width="20" height="20" fill="#ffa5b9"/>
  <rect x="180" y="80" width="20" height="20" fill="#ffa5b9"/>
  <rect x="200" y="80" width="20" height="20" fill="#ffa5b9"/>
  <rect x="220" y="80" width="20" height="20" fill="#ffa5b9"/>
  <rect x="240" y="80" width="20" height="20" fill="#ffa5b9"/>
  <rect x="260" y="80" width="20" height="20" fill="#ffa5b9"/>
  
  <rect x="100" y="100" width="20" height="20" fill="#ffa5b9"/>
  <rect x="120" y="100" width="20" height="20" fill="#ffa5b9"/>
  <rect x="140" y="100" width="20" height="20" fill="#ffa5b9"/>
  <rect x="160" y="100" width="20" height="20" fill="#ffa5b9"/>
  <rect x="180" y="100" width="20" height="20" fill="#ffa5b9"/>
  <rect x="200" y="100" width="20" height="20" fill="#ffa5b9"/>
  <rect x="220" y="100" width="20" height="20" fill="#ffa5b9"/>
  <rect x="240" y="100" width="20" height="20" fill="#ffa5b9"/>
  <rect x="260" y="100" width="20" height="20" fill="#ffa5b9"/>
  <rect x="280" y="100" width="20" height="20" fill="#ffa5b9"/>
  
  <rect x="100" y="120" width="20" height="20" fill="#ff91a9"/>
  <rect x="120" y="120" width="20" height="20" fill="#ff91a9"/>
  <rect x="140" y="120" width="20" height="20" fill="#ff91a9"/>
  <rect x="160" y="120" width="20" height="20" fill="#ff91a9"/>
  <rect x="180" y="120" width="20" height="20" fill="#ff91a9"/>
  <rect x="200" y="120" width="20" height="20" fill="#ff91a9"/>
  <rect x="220" y="120" width="20" height="20" fill="#ff91a9"/>
  <rect x="240" y="120" width="20" height="20" fill="#ff91a9"/>
  <rect x="260" y="120" width="20" height="20" fill="#ff91a9"/>
  <rect x="280" y="120" width="20" height="20" fill="#ff91a9"/>
  
  <rect x="80" y="140" width="20" height="20" fill="#ff91a9"/>
  <rect x="100" y="140" width="20" height="20" fill="#ff91a9"/>
  <rect x="120" y="140" width="20" height="20" fill="#ff91a9"/>
  <rect x="140" y="140" width="20" height="20" fill="#ff91a9"/>
  <rect x="160" y="140" width="20" height="20" fill="#ff91a9"/>
  <rect x="180" y="140" width="20" height="20" fill="#ff91a9"/>
  <rect x="200" y="140" width="20" height="20" fill="#ff91a9"/>
  <rect x="220" y="140" width="20" height="20" fill="#ff91a9"/>
  <rect x="240" y="140" width="20" height="20" fill="#ff91a9"/>
  <rect x="260" y="140" width="20" height="20" fill="#ff91a9"/>
  <rect x="280" y="140" width="20" height="20" fill="#ff91a9"/>
  <rect x="300" y="140" width="20" height="20" fill="#ff91a9"/>
  
  <rect x="80" y="160" width="20" height="20" fill="#ff91a9"/>
  <rect x="100" y="160" width="20" height="20" fill="#ff91a9"/>
  <rect x="120" y="160" width="20" height="20" fill="#ff91a9"/>
  <rect x="140" y="160" width="20" height="20" fill="#ff91a9"/>
  <rect x="160" y="160" width="20" height="20" fill="#ff91a9"/>
  <rect x="180" y="160" width="20" height="20" fill="#ff91a9"/>
  <rect x="200" y="160" width="20" height="20" fill="#ff91a9"/>
  <rect x="220" y="160" width="20" height="20" fill="#ff91a9"/>
  <rect x="240" y="160" width="20" height="20" fill="#ff91a9"/>
  <rect x="260" y="160" width="20" height="20" fill="#ff91a9"/>
  <rect x="280" y="160" width="20" height="20" fill="#ff91a9"/>
  <rect x="300" y="160" width="20" height="20" fill="#ff91a9"/>
  
  <rect x="100" y="180" width="20" height="20" fill="#ff91a9"/>
  <rect x="120" y="180" width="20" height="20" fill="#ff91a9"/>
  <rect x="140" y="180" width="20" height="20" fill="#ff91a9"/>
  <rect x="160" y="180" width="20" height="20" fill="#ff91a9"/>
  <rect x="180" y="180" width="20" height="20" fill="#ff91a9"/>
  <rect x="200" y="180" width="20" height="20" fill="#ff91a9"/>
  <rect x="220" y="180" width="20" height="20" fill="#ff91a9"/>
  <rect x="240" y="180" width="20" height="20" fill="#ff91a9"/>
  <rect x="260" y="180" width="20" height="20" fill="#ff91a9"/>
  <rect x="280" y="180" width="20" height="20" fill="#ff91a9"/>
  
  <rect x="120" y="200" width="20" height="20" fill="#ff91a9"/>
  <rect x="140" y="200" width="20" height="20" fill="#ff91a9"/>
  <rect x="160" y="200" width="20" height="20" fill="#ff91a9"/>
  <rect x="180" y="200" width="20" height="20" fill="#ff91a9"/>
  <rect x="200" y="200" width="20" height="20" fill="#ff91a9"/>
  <rect x="220" y="200" width="20" height="20" fill="#ff91a9"/>
  <rect x="240" y="200" width="20" height="20" fill="#ff91a9"/>
  <rect x="260" y="200" width="20" height="20" fill="#ff91a9"/>
  
  <!-- 眼睛 - 更大更萌的眼睛 -->
  <rect x="140" y="120" width="20" height="20" fill="#000000"/>
  <rect x="160" y="120" width="20" height="20" fill="#000000"/>
  <rect x="140" y="140" width="20" height="20" fill="#000000"/>
  <rect x="160" y="140" width="20" height="20" fill="#000000"/>
  <rect x="150" y="130" width="20" height="20" fill="#ffffff"/>
  
  <rect x="220" y="120" width="20" height="20" fill="#000000"/>
  <rect x="240" y="120" width="20" height="20" fill="#000000"/>
  <rect x="220" y="140" width="20" height="20" fill="#000000"/>
  <rect x="240" y="140" width="20" height="20" fill="#000000"/>
  <rect x="230" y="130" width="20" height="20" fill="#ffffff"/>
  
  <!-- 鼻子和嘴 - 更可愛的表情 -->
  <rect x="180" y="160" width="20" height="20" fill="#4d4d4d"/>
  <rect x="200" y="160" width="20" height="20" fill="#4d4d4d"/>
  <rect x="190" y="160" width="20" height="20" fill="#000000"/>
  
  <!-- 微笑 -->
  <rect x="170" y="180" width="20" height="20" fill="#000000"/>
  <rect x="190" y="180" width="20" height="20" fill="#ffffff"/>
  <rect x="210" y="180" width="20" height="20" fill="#000000"/>
  
  <!-- 腮紅 -->
  <rect x="120" y="160" width="20" height="20" fill="#ff6e8e"/>
  <rect x="260" y="160" width="20" height="20" fill="#ff6e8e"/>
  
  <!-- 身體 - 更圓潤更萌 -->
  <rect x="140" y="220" width="20" height="20" fill="#ff91a9"/>
  <rect x="160" y="220" width="20" height="20" fill="#ff91a9"/>
  <rect x="180" y="220" width="20" height="20" fill="#ff91a9"/>
  <rect x="200" y="220" width="20" height="20" fill="#ff91a9"/>
  <rect x="220" y="220" width="20" height="20" fill="#ff91a9"/>
  <rect x="240" y="220" width="20" height="20" fill="#ff91a9"/>
  
  <rect x="140" y="240" width="20" height="20" fill="#ff91a9"/>
  <rect x="160" y="240" width="20" height="20" fill="#ff91a9"/>
  <rect x="180" y="240" width="20" height="20" fill="#ff91a9"/>
  <rect x="200" y="240" width="20" height="20" fill="#ff91a9"/>
  <rect x="220" y="240" width="20" height="20" fill="#ff91a9"/>
  <rect x="240" y="240" width="20" height="20" fill="#ff91a9"/>
  
  <!-- 手腳 - 更短更可愛 -->
  <rect x="120" y="220" width="20" height="20" fill="#ff91a9"/>
  <rect x="100" y="240" width="20" height="20" fill="#ff91a9"/>
  <rect x="80" y="260" width="20" height="20" fill="#ff91a9"/>
  <rect x="100" y="260" width="20" height="20" fill="#ff91a9"/>
  <rect x="80" y="280" width="20" height="20" fill="#ffeea8"/>
  <rect x="100" y="280" width="20" height="20" fill="#ffeea8"/>
  
  <rect x="260" y="220" width="20" height="20" fill="#ff91a9"/>
  <rect x="280" y="240" width="20" height="20" fill="#ff91a9"/>
  <rect x="280" y="260" width="20" height="20" fill="#ff91a9"/>
  <rect x="300" y="260" width="20" height="20" fill="#ff91a9"/>
  <rect x="280" y="280" width="20" height="20" fill="#ffeea8"/>
  <rect x="300" y="280" width="20" height="20" fill="#ffeea8"/>
  
  <rect x="160" y="260" width="20" height="20" fill="#ff91a9"/>
  <rect x="180" y="260" width="20" height="20" fill="#ff91a9"/>
  <rect x="200" y="260" width="20" height="20" fill="#ff91a9"/>
  <rect x="220" y="260" width="20" height="20" fill="#ff91a9"/>
  
  <rect x="160" y="280" width="20" height="20" fill="#ff91a9"/>
  <rect x="180" y="280" width="20" height="20" fill="#ff91a9"/>
  <rect x="200" y="280" width="20" height="20" fill="#ff91a9"/>
  <rect x="220" y="280" width="20" height="20" fill="#ff91a9"/>
  
  <rect x="160" y="300" width="20" height="20" fill="#ffeea8"/>
  <rect x="180" y="300" width="20" height="20" fill="#ffeea8"/>
  <rect x="200" y="300" width="20" height="20" fill="#ffeea8"/>
  <rect x="220" y="300" width="20" height="20" fill="#ffeea8"/>
  
  <!-- 尾巴 - 更圓更可愛 -->
  <rect x="300" y="200" width="20" height="20" fill="#16c875"/>
  <rect x="320" y="180" width="20" height="20" fill="#16c875"/>
  <rect x="340" y="180" width="20" height="20" fill="#16c875"/>
  <rect x="340" y="200" width="20" height="20" fill="#16c875"/>
  
  <!-- 愛心裝飾 -->
  <rect x="180" y="40" width="20" height="20" fill="#ff6e8e"/>
  <rect x="200" y="40" width="20" height="20" fill="#ff6e8e"/>
  <rect x="160" y="60" width="20" height="20" fill="#ff6e8e"/>
  <rect x="180" y="60" width="20" height="20" fill="#ff6e8e"/>
  <rect x="200" y="60" width="20" height="20" fill="#ff6e8e"/>
  <rect x="220" y="60" width="20" height="20" fill="#ff6e8e"/>
</svg>
